<svg xmlns="http://www.w3.org/2000/svg" xmlns:xlink="http://www.w3.org/1999/xlink" version="1.1" width="1000" height="1000" viewBox="0 0 1000 1000" xml:space="preserve">
<desc>Created with Fabric.js 3.5.0</desc>
<defs>
</defs>
<rect x="0" y="0" width="100%" height="100%" fill="rgba(255,255,255,0)"/>
<g transform="matrix(0.8288 0 0 1.3063 361.1759 555.1584)" id="Ebene_1-2">
<path style="stroke: none; stroke-width: 1; stroke-dasharray: none; stroke-linecap: butt; stroke-dashoffset: 0; stroke-linejoin: miter; stroke-miterlimit: 4; is-custom-font: none; font-file-url: none; fill: rgb(255,255,255); fill-rule: nonzero; opacity: 1;" transform=" translate(-289.12, -143.945)" d="M 242.12 181.07 h 58.54 c 9.76 0 13.57 -3.81 13.57 -10.95 c 0 -20.94 -72.11 -12.85 -72.11 -52.36 c 0 -20.23 14 -30.94 39 -30.94 h 49.26 v 20 H 277.58 c -10.23 0 -13.33 2.85 -13.57 10 c -0.23 19.75 72.11 11.42 72.11 52.36 c 0 21.66 -15.23 31.89 -35.46 31.89 H 242.12 Z" stroke-linecap="round"/>
</g>
<g transform="matrix(0.8288 0 0 1.3063 454.9627 555.1389)" id="Ebene_1-2">
<path style="stroke: none; stroke-width: 1; stroke-dasharray: none; stroke-linecap: butt; stroke-dashoffset: 0; stroke-linejoin: miter; stroke-miterlimit: 4; is-custom-font: none; font-file-url: none; fill: rgb(255,255,255); fill-rule: nonzero; opacity: 1;" transform=" translate(-402.275, -143.93)" d="M 439.65 201.06 V 136.8 c 0 -21.42 -18.09 -32.36 -37.13 -32.36 c -23.08 0 -37.6 18.32 -37.6 40 c 0 21.18 15.47 39 37.37 39 c 11.9 0 21.65 -6.67 28.79 -15.71 v 24.75 c -8.33 6.19 -16.42 10.95 -30.94 10.95 c -32.84 0 -56.16 -27.13 -56.16 -60.69 c 0 -32.6 22.37 -58.31 59 -58.31 c 35.22 0 57.59 21.42 57.59 54.27 v 62.35 Z" stroke-linecap="round"/>
</g>
<g transform="matrix(0.8288 0 0 1.3063 543.1317 553.5974)" id="Ebene_1-2">
<path style="stroke: none; stroke-width: 1; stroke-dasharray: none; stroke-linecap: butt; stroke-dashoffset: 0; stroke-linejoin: miter; stroke-miterlimit: 4; is-custom-font: none; font-file-url: none; fill: rgb(255,255,255); fill-rule: nonzero; opacity: 1;" transform=" translate(-508.65, -142.75)" d="M 480.59 86.82 h 20 V 99.91 h 0.48 C 508.2 88.73 518 84.44 532 84.44 h 4.76 v 20 h -3.1 c -20.23 0 -32.12 12.37 -32.12 43.31 v 53.31 h -21 Z" stroke-linecap="round"/>
</g>
<g transform="matrix(0.8288 0 0 1.3063 586.5469 555.1454)" id="Ebene_1-2">
<rect style="stroke: none; stroke-width: 1; stroke-dasharray: none; stroke-linecap: butt; stroke-dashoffset: 0; stroke-linejoin: miter; stroke-miterlimit: 4; is-custom-font: none; font-file-url: none; fill: rgb(255,255,255); fill-rule: nonzero; opacity: 1;" x="-10.47" y="-57.115" rx="0" ry="0" width="20.94" height="114.23"/>
</g>
<g transform="matrix(0.8288 0 0 1.3063 650.9546 555.1584)" id="Ebene_1-2">
<path style="stroke: none; stroke-width: 1; stroke-dasharray: none; stroke-linecap: butt; stroke-dashoffset: 0; stroke-linejoin: miter; stroke-miterlimit: 4; is-custom-font: none; font-file-url: none; fill: rgb(255,255,255); fill-rule: nonzero; opacity: 1;" transform=" translate(-638.74, -143.945)" d="M 591.74 181.07 h 58.54 c 9.76 0 13.57 -3.81 13.57 -10.95 c 0 -20.94 -72.11 -12.85 -72.11 -52.36 c 0 -20.23 14 -30.94 39 -30.94 H 680 v 20 H 627.2 c -10.24 0 -13.33 2.85 -13.57 10 c -0.24 19.75 72.11 11.42 72.11 52.36 c 0 21.66 -15.23 31.89 -35.46 31.89 H 591.74 Z" stroke-linecap="round"/>
</g>
<g transform="matrix(0.8288 0 0 1.3063 736.1675 555.1584)" id="Ebene_1-2">
<path style="stroke: none; stroke-width: 1; stroke-dasharray: none; stroke-linecap: butt; stroke-dashoffset: 0; stroke-linejoin: miter; stroke-miterlimit: 4; is-custom-font: none; font-file-url: none; fill: rgb(255,255,255); fill-rule: nonzero; opacity: 1;" transform=" translate(-741.55, -143.945)" d="M 694.55 181.07 h 58.54 c 9.76 0 13.57 -3.81 13.57 -10.95 c 0 -20.94 -72.11 -12.85 -72.11 -52.36 c 0 -20.23 14 -30.94 39 -30.94 h 49.26 v 20 H 730 c -10.23 0 -13.33 2.85 -13.57 10 c -0.23 19.75 72.12 11.42 72.12 52.36 c 0 21.66 -15.23 31.89 -35.47 31.89 H 694.55 Z" stroke-linecap="round"/>
</g>
<g transform="matrix(0.8288 0 0 1.3063 829.9585 555.1389)" id="Ebene_1-2">
<path style="stroke: none; stroke-width: 1; stroke-dasharray: none; stroke-linecap: butt; stroke-dashoffset: 0; stroke-linejoin: miter; stroke-miterlimit: 4; is-custom-font: none; font-file-url: none; fill: rgb(255,255,255); fill-rule: nonzero; opacity: 1;" transform=" translate(-854.71, -143.93)" d="M 892.08 201.06 V 136.8 c 0 -21.42 -18.09 -32.36 -37.12 -32.36 c -23.09 0 -37.61 18.32 -37.61 40 c 0 21.18 15.47 39 37.37 39 c 11.9 0 21.66 -6.67 28.8 -15.71 v 24.75 c -8.34 6.19 -16.42 10.95 -30.94 10.95 c -32.85 0 -56.17 -27.13 -56.17 -60.69 c 0 -32.6 22.37 -58.31 59 -58.31 c 35.22 0 57.6 21.42 57.6 54.27 v 62.35 Z" stroke-linecap="round"/>
</g>
<g transform="matrix(0.8288 0 0 1.3063 586.6215 412.9228)" id="Ebene_1-2">
<path style="stroke: none; stroke-width: 1; stroke-dasharray: none; stroke-linecap: butt; stroke-dashoffset: 0; stroke-linejoin: miter; stroke-miterlimit: 4; is-custom-font: none; font-file-url: none; fill: rgb(164,21,21); fill-rule: nonzero; opacity: 1;" transform=" translate(-561.12, -35.0607)" d="M 550.56 33.61 v 5.6 a 20.62 20.62 0 0 1 21.12 0.1 v -5.6 a 21 21 0 0 0 -21.12 -0.1 Z" stroke-linecap="round"/>
</g>
<g transform="matrix(0.8288 0 0 1.3063 586.5966 397.8405)" id="Ebene_1-2">
<path style="stroke: none; stroke-width: 1; stroke-dasharray: none; stroke-linecap: butt; stroke-dashoffset: 0; stroke-linejoin: miter; stroke-miterlimit: 4; is-custom-font: none; font-file-url: none; fill: rgb(164,21,21); fill-rule: nonzero; opacity: 1;" transform=" translate(-561.09, -23.515)" d="M 561 19.28 a 28.27 28.27 0 0 0 -10.47 2.08 v 6.31 a 25.7 25.7 0 0 1 21.12 0.08 V 21.42 A 28.39 28.39 0 0 0 561 19.28 Z" stroke-linecap="round"/>
</g>
<g transform="matrix(0.8288 0 0 1.3063 586.6215 428.2118)" id="Ebene_1-2">
<path style="stroke: none; stroke-width: 1; stroke-dasharray: none; stroke-linecap: butt; stroke-dashoffset: 0; stroke-linejoin: miter; stroke-miterlimit: 4; is-custom-font: none; font-file-url: none; fill: rgb(164,21,21); fill-rule: nonzero; opacity: 1;" transform=" translate(-561.12, -46.7648)" d="M 571.68 51.81 v -6 a 15.88 15.88 0 0 0 -21.12 -0.14 v 6 a 19 19 0 0 1 21.12 0.12 Z" stroke-linecap="round"/>
</g>
<g transform="matrix(0.8288 0 0 1.3063 586.5966 446.422)" id="Ebene_1-2">
<path style="stroke: none; stroke-width: 1; stroke-dasharray: none; stroke-linecap: butt; stroke-dashoffset: 0; stroke-linejoin: miter; stroke-miterlimit: 4; is-custom-font: none; font-file-url: none; fill: rgb(164,21,21); fill-rule: nonzero; opacity: 1;" transform=" translate(-561.09, -60.705)" d="M 561 53.91 a 15.52 15.52 0 0 0 -10.47 4.52 V 67.5 h 21.12 V 58.6 C 568.45 55.56 564.81 53.91 561 53.91 Z" stroke-linecap="round"/>
</g>
<g transform="matrix(0.8288 0 0 1.3063 586.6091 377.3707)" id="Ebene_1-2">
<path style="stroke: none; stroke-width: 1; stroke-dasharray: none; stroke-linecap: butt; stroke-dashoffset: 0; stroke-linejoin: miter; stroke-miterlimit: 4; is-custom-font: none; font-file-url: none; fill: rgb(164,21,21); fill-rule: nonzero; opacity: 1;" transform=" translate(-561.105, -7.845)" d="M 561 13.91 a 32.92 32.92 0 0 1 10.65 1.78 V 0 H 550.56 V 15.63 A 33.29 33.29 0 0 1 561 13.91 Z" stroke-linecap="round"/>
</g>
<g transform="matrix(0.8288 0 0 1.3063 198.0255 555.1323)" id="Ebene_1-2">
<path style="stroke: none; stroke-width: 1; stroke-dasharray: none; stroke-linecap: butt; stroke-dashoffset: 0; stroke-linejoin: miter; stroke-miterlimit: 4; is-custom-font: none; font-file-url: none; fill: rgb(164,21,21); fill-rule: nonzero; opacity: 1;" transform=" translate(-92.28, -143.925)" d="M 0 86.85 v 88 l 71.06 -24.22 s 7.59 -9.86 16.48 -13 c 4.84 -1.73 84 -18.28 84 -18.28 S 99.64 156.25 94.8 158 c -8.89 3.16 -20.94 0.35 -20.94 0.35 L 0 185.77 V 201 H 184.56 V 86.85 Z" stroke-linecap="round"/>
</g>
<g transform="matrix(0.8288 0 0 1.3063 866.0965 448.1139)" id="Ebene_1-2">
<path style="stroke: none; stroke-width: 1; stroke-dasharray: none; stroke-linecap: butt; stroke-dashoffset: 0; stroke-linejoin: miter; stroke-miterlimit: 4; is-custom-font: none; font-file-url: none; fill: rgb(75,75,74); fill-rule: nonzero; opacity: 1;" transform=" translate(-898.3087, -62.0003)" d="M 883.31 61.8 A 15 15 0 1 1 898.22 77 A 15 15 0 0 1 883.31 61.8 Z m 28.06 0 a 13.38 13.38 0 0 0 -13.15 -13.61 c -7.47 0 -13.06 6.26 -13.06 13.61 s 5.59 13.61 13.06 13.61 A 13.38 13.38 0 0 0 911.37 61.8 Z m -17.22 9 h -1.6 V 53.1 h 6.68 c 3.74 0 5.55 1.43 5.55 4.67 s -1.77 4.28 -4.37 4.7 l 5.38 8.36 h -2.27 l -5.09 -8.36 h -4.28 Z M 897.59 61 c 2.73 0 5.42 -0.09 5.42 -3.24 c 0 -2.52 -2.1 -3.1 -4.28 -3.1 h -4.58 V 61 Z" stroke-linecap="round"/>
</g>
</svg>