<svg xmlns="http://www.w3.org/2000/svg" viewBox="0 0 913.22 203.44"><defs><style>.cls-1{fill:#4b4b4a;}.cls-2{fill:#a41515;}</style></defs><title>sarissa_assistenzsysteme</title><g id="Ebene_2" data-name="Ebene 2"><g id="Ebene_1-2" data-name="Ebene 1"><path class="cls-1" d="M242.12,181.07h58.54c9.76,0,13.57-3.81,13.57-10.95,0-20.94-72.11-12.85-72.11-52.36,0-20.23,14-30.94,39-30.94h49.26v20H277.58c-10.23,0-13.33,2.85-13.57,10-.23,19.75,72.11,11.42,72.11,52.36,0,21.66-15.23,31.89-35.46,31.89H242.12Z"/><path class="cls-1" d="M439.65,201.06V136.8c0-21.42-18.09-32.36-37.13-32.36-23.08,0-37.6,18.32-37.6,40,0,21.18,15.47,39,37.37,39,11.9,0,21.65-6.67,28.79-15.71v24.75c-8.33,6.19-16.42,10.95-30.94,10.95-32.84,0-56.16-27.13-56.16-60.69,0-32.6,22.37-58.31,59-58.31,35.22,0,57.59,21.42,57.59,54.27v62.35Z"/><path class="cls-1" d="M480.59,86.82h20V99.91h.48C508.2,88.73,518,84.44,532,84.44h4.76v20h-3.1c-20.23,0-32.12,12.37-32.12,43.31v53.31h-21Z"/><rect class="cls-1" x="550.56" y="86.82" width="20.94" height="114.23"/><path class="cls-1" d="M591.74,181.07h58.54c9.76,0,13.57-3.81,13.57-10.95,0-20.94-72.11-12.85-72.11-52.36,0-20.23,14-30.94,39-30.94H680v20H627.2c-10.24,0-13.33,2.85-13.57,10-.24,19.75,72.11,11.42,72.11,52.36,0,21.66-15.23,31.89-35.46,31.89H591.74Z"/><path class="cls-1" d="M694.55,181.07h58.54c9.76,0,13.57-3.81,13.57-10.95,0-20.94-72.11-12.85-72.11-52.36,0-20.23,14-30.94,39-30.94h49.26v20H730c-10.23,0-13.33,2.85-13.57,10-.23,19.75,72.12,11.42,72.12,52.36,0,21.66-15.23,31.89-35.47,31.89H694.55Z"/><path class="cls-1" d="M892.08,201.06V136.8c0-21.42-18.09-32.36-37.12-32.36-23.09,0-37.61,18.32-37.61,40,0,21.18,15.47,39,37.37,39,11.9,0,21.66-6.67,28.8-15.71v24.75c-8.34,6.19-16.42,10.95-30.94,10.95-32.85,0-56.17-27.13-56.17-60.69,0-32.6,22.37-58.31,59-58.31,35.22,0,57.6,21.42,57.6,54.27v62.35Z"/><path class="cls-2" d="M550.56,33.61v5.6a20.62,20.62,0,0,1,21.12.1v-5.6a21,21,0,0,0-21.12-.1Z"/><path class="cls-2" d="M561,19.28a28.27,28.27,0,0,0-10.47,2.08v6.31a25.7,25.7,0,0,1,21.12.08V21.42A28.39,28.39,0,0,0,561,19.28Z"/><path class="cls-2" d="M571.68,51.81v-6a15.88,15.88,0,0,0-21.12-.14v6a19,19,0,0,1,21.12.12Z"/><path class="cls-2" d="M561,53.91a15.52,15.52,0,0,0-10.47,4.52V67.5h21.12V58.6C568.45,55.56,564.81,53.91,561,53.91Z"/><path class="cls-2" d="M561,13.91a32.92,32.92,0,0,1,10.65,1.78V0H550.56V15.63A33.29,33.29,0,0,1,561,13.91Z"/><path class="cls-2" d="M0,86.85v88l71.06-24.22s7.59-9.86,16.48-13c4.84-1.73,84-18.28,84-18.28S99.64,156.25,94.8,158c-8.89,3.16-20.94.35-20.94.35L0,185.77V201H184.56V86.85Z"/><path class="cls-1" d="M883.31,61.8A15,15,0,1,1,898.22,77,15,15,0,0,1,883.31,61.8Zm28.06,0a13.38,13.38,0,0,0-13.15-13.61c-7.47,0-13.06,6.26-13.06,13.61s5.59,13.61,13.06,13.61A13.38,13.38,0,0,0,911.37,61.8Zm-17.22,9h-1.6V53.1h6.68c3.74,0,5.55,1.43,5.55,4.67s-1.77,4.28-4.37,4.7l5.38,8.36h-2.27l-5.09-8.36h-4.28ZM897.59,61c2.73,0,5.42-.09,5.42-3.24,0-2.52-2.1-3.1-4.28-3.1h-4.58V61Z"/></g></g></svg>